<?xml version="1.0" encoding="UTF-8" standalone="no"?><!DOCTYPE svg PUBLIC "-//W3C//DTD SVG 1.1//EN" "http://www.w3.org/Graphics/SVG/1.1/DTD/svg11.dtd"><svg width="100%" height="100%" viewBox="0 0 6 6" version="1.1" xmlns="http://www.w3.org/2000/svg" xmlns:xlink="http://www.w3.org/1999/xlink" xml:space="preserve" xmlns:serif="http://www.serif.com/" style="fill-rule:evenodd;clip-rule:evenodd;stroke-linejoin:round;stroke-miterlimit:2;"><rect id="edit" x="0" y="0" width="5.76" height="5.76" style="fill:none;"/><clipPath id="_clip1"><rect x="0" y="0" width="5.76" height="5.76"/></clipPath><g clip-path="url(#_clip1)"><path d="M4.422,3.875l-0,1.236c-0,0.358 -0.291,0.649 -0.649,0.649l-3.028,0c-0.359,0 -0.649,-0.291 -0.649,-0.649l-0,-4.462c-0,-0.358 0.29,-0.649 0.649,-0.649l1.663,-0l0,1.215c0,0.44 0.358,0.798 0.799,0.798c-0,0 1.215,0 1.215,0l-0,0.373l-1.529,0.882l-0.74,1.172l1.385,-0.055l0.884,-0.51Zm-0.15,-2.161l-1.065,0c-0.276,0 -0.5,-0.223 -0.5,-0.499l0,-1.066l1.565,1.565Z"/><path d="M3.086,3.404l1.459,-0.842l0.43,0.746l-1.459,0.842l-1.01,0.086l0.58,-0.832Zm1.67,-0.964l0.241,-0.139c0.219,-0.127 0.494,-0.062 0.613,0.143c0.119,0.206 0.037,0.476 -0.182,0.603l-0.242,0.139l-0.43,-0.746Z"/></g></svg>