<?xml version="1.0" encoding="UTF-8" standalone="no"?><!DOCTYPE svg PUBLIC "-//W3C//DTD SVG 1.1//EN" "http://www.w3.org/Graphics/SVG/1.1/DTD/svg11.dtd"><svg width="100%" height="100%" viewBox="0 0 6 6" version="1.1" xmlns="http://www.w3.org/2000/svg" xmlns:xlink="http://www.w3.org/1999/xlink" xml:space="preserve" xmlns:serif="http://www.serif.com/" style="fill-rule:evenodd;clip-rule:evenodd;stroke-linejoin:round;stroke-miterlimit:2;"><rect id="files" x="0" y="0" width="5.76" height="5.76" style="fill:none;"/><path d="M0.683,1.2l1.292,-0c0.074,-0 0.147,0.028 0.205,0.08l0.442,0.393l2.419,0c0.183,0 0.332,0.168 0.332,0.374l-0,2.284l0.056,0c0.183,0 0.331,-0.167 0.331,-0.373l-0,-2.348c0,-0.206 -0.148,-0.374 -0.331,-0.374l-2.419,0l-0.443,-0.393c-0.058,-0.052 -0.13,-0.08 -0.205,-0.08l-1.348,-0c-0.183,-0 -0.331,0.167 -0.331,0.373l-0,0.064Z"/><path d="M2.327,1.902l-0.442,-0.393c-0.059,-0.052 -0.131,-0.08 -0.205,-0.08l-1.349,-0c-0.183,-0 -0.331,0.167 -0.331,0.373c0,0 0,2.822 0,2.822c0,0.206 0.148,0.373 0.331,0.373l4.415,0c0.183,0 0.331,-0.167 0.331,-0.373l0,-2.348c0,-0.206 -0.148,-0.374 -0.331,-0.374l-2.419,0Z"/></svg>