<?xml version="1.0" encoding="UTF-8" standalone="no"?><!DOCTYPE svg PUBLIC "-//W3C//DTD SVG 1.1//EN" "http://www.w3.org/Graphics/SVG/1.1/DTD/svg11.dtd"><svg width="100%" height="100%" viewBox="0 0 6 6" version="1.1" xmlns="http://www.w3.org/2000/svg" xmlns:xlink="http://www.w3.org/1999/xlink" xml:space="preserve" xmlns:serif="http://www.serif.com/" style="fill-rule:evenodd;clip-rule:evenodd;stroke-linejoin:round;stroke-miterlimit:2;"><rect id="graph" x="0" y="0" width="5.76" height="5.76" style="fill:none;"/><g><path d="M5.434,4.69c0,-0.011 -0.008,-0.02 -0.019,-0.02l-4.286,0c0,0 0,-4.364 0,-4.364c0,-0.011 -0.008,-0.02 -0.019,-0.02l-0.765,0c-0.011,0 -0.019,0.009 -0.019,0.02l-0,5.148c-0,0.011 0.008,0.02 0.019,0.02l5.07,-0c0.011,-0 0.019,-0.009 0.019,-0.02l0,-0.764Z"/><path d="M1.454,4.42l0.75,0l0,-1.633c0,-0.058 -0.084,-0.105 -0.187,-0.105l-0.376,0c-0.103,0 -0.187,0.047 -0.187,0.105l-0,1.633Z"/><path d="M3.594,4.42l0.751,0l-0,-2.965c-0,-0.104 -0.084,-0.189 -0.188,-0.189l-0.375,-0c-0.104,-0 -0.188,0.085 -0.188,0.189l0,2.965Z"/><path d="M2.524,4.42l0.751,0l-0,-2.288c-0,-0.081 -0.085,-0.146 -0.188,-0.146l-0.375,-0c-0.104,-0 -0.188,0.065 -0.188,0.146l-0,2.288Z"/><path d="M4.664,4.42l0.751,0l-0,-3.867c-0,-0.136 -0.084,-0.247 -0.188,-0.247l-0.375,-0c-0.104,-0 -0.188,0.111 -0.188,0.247l0,3.867Z"/></g></svg>