<?xml version="1.0" encoding="UTF-8" standalone="no"?><!DOCTYPE svg PUBLIC "-//W3C//DTD SVG 1.1//EN" "http://www.w3.org/Graphics/SVG/1.1/DTD/svg11.dtd"><svg width="100%" height="100%" viewBox="0 0 6 6" version="1.1" xmlns="http://www.w3.org/2000/svg" xmlns:xlink="http://www.w3.org/1999/xlink" xml:space="preserve" xmlns:serif="http://www.serif.com/" style="fill-rule:evenodd;clip-rule:evenodd;stroke-linejoin:round;stroke-miterlimit:2;"><rect id="Mesa-de-trabajo3" serif:id="Mesa de trabajo3" x="0" y="0" width="5.76" height="5.76" style="fill:none;"/><g><g><path d="M3.396,3.179l-1.032,0c-0.067,-0.3 -0.259,-0.554 -0.52,-0.703c0.117,-0.182 0.279,-0.335 0.475,-0.442c0.168,0.147 0.388,0.236 0.628,0.236c0.241,0 0.461,-0.089 0.628,-0.236c0.178,0.097 0.328,0.232 0.441,0.392c-0.311,0.136 -0.545,0.415 -0.62,0.753Z"/><ellipse cx="2.947" cy="1.202" rx="0.833" ry="0.831"/></g><g><path d="M0.681,4.243c0.167,0.147 0.387,0.237 0.628,0.237c0.24,-0 0.46,-0.09 0.628,-0.237c0.42,0.229 0.681,0.669 0.681,1.146l-2.618,-0c-0,-0.477 0.261,-0.917 0.681,-1.146Z"/><ellipse cx="1.309" cy="3.412" rx="0.833" ry="0.831"/></g><g><path d="M3.823,4.243c0.168,0.147 0.388,0.237 0.628,0.237c0.241,-0 0.461,-0.09 0.628,-0.237c0.42,0.229 0.681,0.669 0.681,1.146l-2.618,-0c0,-0.477 0.261,-0.917 0.681,-1.146Z"/><ellipse cx="4.451" cy="3.412" rx="0.833" ry="0.831"/></g></g></svg>